<svg id="Layer_1" data-name="Layer 1" xmlns="http://www.w3.org/2000/svg" xmlns:xlink="http://www.w3.org/1999/xlink" viewBox="0 0 552 552"><defs><style>.cls-1{fill:#00e322;}.cls-1,.cls-2,.cls-3{stroke:#000;}.cls-1,.cls-2,.cls-3,.cls-4,.cls-5{stroke-linecap:round;stroke-linejoin:round;stroke-width:9px;}.cls-2{fill:url(#linear-gradient);}.cls-3{fill:none;}.cls-4{fill:#d1d3d4;}.cls-4,.cls-5{stroke:#0c080a;}.cls-5{fill:#fff;}.cls-6{fill:#fafafa;}</style><linearGradient id="linear-gradient" x1="144.84" y1="125.07" x2="89.9" y2="29.9" gradientUnits="userSpaceOnUse"><stop offset="0" stop-color="#00e323"/><stop offset="0.11" stop-color="#05e327"/><stop offset="0.24" stop-color="#12e533"/><stop offset="0.37" stop-color="#29e746"/><stop offset="0.51" stop-color="#49ea62"/><stop offset="0.65" stop-color="#72ed85"/><stop offset="0.79" stop-color="#a4f2b0"/><stop offset="0.94" stop-color="#def7e2"/><stop offset="1" stop-color="#fafafa"/></linearGradient><symbol id="New_Symbol_2" data-name="New Symbol 2" viewBox="0 0 204.6 142.37"><path class="cls-1" d="M94.31,42.85l-52.67,65-28-34.61A40.92,40.92,0,0,1,77.22,21.76Z"/><path class="cls-2" d="M176.66,71.17l-29.72,36.69-24.28,30H65.93l-24.29-30,52.67-65,18.76-23.18a40.91,40.91,0,1,1,63.59,51.49Z"/><line class="cls-3" x1="171.47" y1="54.91" x2="200.1" y2="54.91"/><line class="cls-3" x1="160.88" y1="74.5" x2="189.51" y2="74.5"/><line class="cls-3" x1="146.57" y1="93.09" x2="175.2" y2="93.09"/></symbol><symbol id="New_Symbol_3" data-name="New Symbol 3" viewBox="0 0 204.6 211.83"><use width="204.6" height="142.37" xlink:href="#New_Symbol_2"/><path class="cls-4" d="M116.4,207.33h-3.46V137.87h41.25S155.43,191.4,116.4,207.33Z"/><path class="cls-5" d="M112.94,137.87v69.47H78s-38.42-8-41.58-69.47Z"/></symbol></defs><title>cactus logo</title><rect class="cls-6" y="-0.68" width="552" height="552"/><rect class="cls-6" y="-6.68" width="552" height="564"/><use width="204.6" height="211.83" transform="translate(181.84 164.82)" xlink:href="#New_Symbol_3"/></svg>